<svg xmlns="http://www.w3.org/2000/svg" width="600" height="600" viewBox="0 0 1200 1200">
  <metadata><?xpacket begin="﻿" id="W5M0MpCehiHzreSzNTczkc9d"?>
<x:xmpmeta xmlns:x="adobe:ns:meta/" x:xmptk="Adobe XMP Core 5.6-c138 79.159824, 2016/09/14-01:09:01        ">
   <rdf:RDF xmlns:rdf="http://www.w3.org/1999/02/22-rdf-syntax-ns#">
      <rdf:Description rdf:about=""/>
   </rdf:RDF>
</x:xmpmeta>
                                                                                                    
                                                                                                    
                                                                                                    
                                                                                                    
                                                                                                    
                                                                                                    
                                                                                                    
                                                                                                    
                                                                                                    
                                                                                                    
                                                                                                    
                                                                                                    
                                                                                                    
                                                                                                    
                                                                                                    
                                                                                                    
                                                                                                    
                                                                                                    
                                                                                                    
                                                                                                    
                           
<?xpacket end="w"?></metadata>
<defs>
    <style>
      .cls-1 {
        fill: #d8d8d8;
      }

      .cls-1, .cls-2 {
        fill-rule: evenodd;
      }

      .cls-2 {
        fill: #f36d21;
      }
    </style>
  </defs>
  <path id="Ürün_Görseli_Hazırlanıyor" data-name="Ürün Görseli Hazırlanıyor" class="cls-1" d="M409,909.537v24.245q0,4.476-1.544,6.444t-4.971,1.968a5.926,5.926,0,0,1-4.843-1.983Q396,938.229,396,933.838v-24.3H384.757v25.18q0,8.128,4.546,12.462t13.014,4.334q8.668,0,13.27-4.461t4.6-12.59V909.537H409Zm-16.938-4.929a5.873,5.873,0,0,0,7.067-.042,4.145,4.145,0,0,0,1.317-3.215,4.212,4.212,0,0,0-1.317-3.271,5.843,5.843,0,0,0-7.067-.029,4.216,4.216,0,0,0-1.3,3.3A4.133,4.133,0,0,0,392.064,904.608Zm13.553-.014a5.993,5.993,0,0,0,7.166-.028,4.145,4.145,0,0,0,1.317-3.215,4.222,4.222,0,0,0-1.317-3.257,5.071,5.071,0,0,0-3.583-1.218,5.135,5.135,0,0,0-3.569,1.175,4.22,4.22,0,0,0-1.3,3.3A4.169,4.169,0,0,0,405.617,904.594Zm37.289,31.284,8.78,15.068h12.689L452.309,932.9q7.024-3.937,7.025-11.132,0-12.236-16.882-12.235H428.885v41.409h11.188V935.878h2.833Zm-2.833-17.873h2.21q5.749,0,5.749,4.277,0,5.184-5.863,5.184h-2.1v-9.461Zm52.088-8.468v24.245q0,4.476-1.544,6.444t-4.971,1.968a5.926,5.926,0,0,1-4.843-1.983q-1.642-1.982-1.643-6.373v-24.3H467.916v25.18q0,8.128,4.546,12.462t13.015,4.334q8.667,0,13.269-4.461t4.6-12.59V909.537H492.161Zm-16.938-4.929a5.873,5.873,0,0,0,7.067-.042,4.145,4.145,0,0,0,1.317-3.215,4.212,4.212,0,0,0-1.317-3.271,5.843,5.843,0,0,0-7.067-.029,4.22,4.22,0,0,0-1.3,3.3A4.137,4.137,0,0,0,475.223,904.608Zm13.553-.014a5.993,5.993,0,0,0,7.166-.028,4.145,4.145,0,0,0,1.317-3.215,4.222,4.222,0,0,0-1.317-3.257,5.071,5.071,0,0,0-3.583-1.218,5.135,5.135,0,0,0-3.569,1.175,4.219,4.219,0,0,0-1.3,3.3A4.169,4.169,0,0,0,488.776,904.594Zm62.695,4.943H541.5v18.722q0,3.795.4,10.055h-0.17l-15.069-28.777H512.044v41.409h9.914V932.281q0-3.625-.538-10.509h0.254L536.8,950.946h14.672V909.537Zm40.645,25.8h7.393v6.486a20.5,20.5,0,0,1-4.589.481,8.394,8.394,0,0,1-6.982-3.045q-2.421-3.043-2.421-8.851,0-5.919,2.676-9.106a9.348,9.348,0,0,1,7.577-3.186,21.89,21.89,0,0,1,9.828,2.209l3.541-8.78a31.221,31.221,0,0,0-6.047-1.87,35.493,35.493,0,0,0-7.379-.736q-10.309,0-16.031,5.58t-5.722,15.606q0,10.281,5.226,15.833t14.8,5.552a49.122,49.122,0,0,0,16-2.493V926.7H592.116v8.639ZM652.078,914.3q-5.1-5.409-14.984-5.41-9.857,0-15.025,5.452T616.9,930.128q0,10.452,5.2,15.918t14.941,5.467q9.885,0,15.012-5.439t5.126-15.889Q657.176,919.7,652.078,914.3Zm-14.984,3.767a7.1,7.1,0,0,1,6.218,2.96q2.08,2.959,2.081,9.163,0,6.174-2.053,9.092a7.183,7.183,0,0,1-6.3,2.917q-8.357,0-8.356-12.009,0-12.123,8.412-12.123h0Zm-10.423-13.454a5.873,5.873,0,0,0,7.067-.042,4.145,4.145,0,0,0,1.317-3.215,4.212,4.212,0,0,0-1.317-3.271,5.843,5.843,0,0,0-7.067-.029,4.22,4.22,0,0,0-1.3,3.3A4.137,4.137,0,0,0,626.671,904.608Zm13.553-.014a5.993,5.993,0,0,0,7.166-.028,4.145,4.145,0,0,0,1.317-3.215,4.222,4.222,0,0,0-1.317-3.257,5.071,5.071,0,0,0-3.583-1.218,5.135,5.135,0,0,0-3.569,1.175,4.219,4.219,0,0,0-1.3,3.3A4.169,4.169,0,0,0,640.224,904.594Zm38.45,31.284,8.78,15.068h12.69L688.078,932.9q7.023-3.937,7.024-11.132,0-12.236-16.881-12.235H664.654v41.409h11.188V935.878h2.832Zm-2.832-17.873h2.209q5.75,0,5.75,4.277,0,5.184-5.863,5.184h-2.1v-9.461Zm53.064,13.412q-2.08-2.761-7.435-5.169a47.939,47.939,0,0,1-6.84-3.513,2.737,2.737,0,0,1-1.26-2.18,2.314,2.314,0,0,1,.991-1.9,5.223,5.223,0,0,1,3.172-.765,24.836,24.836,0,0,1,10.027,2.663l3.427-8.639a32.1,32.1,0,0,0-13.114-2.974q-7.28,0-11.443,3.2a10.617,10.617,0,0,0-4.163,8.922,13.167,13.167,0,0,0,.977,5.3,10.941,10.941,0,0,0,3,3.965,26.4,26.4,0,0,0,6.076,3.569q4.475,2.012,5.509,2.663a5.442,5.442,0,0,1,1.5,1.288,2.445,2.445,0,0,1,.467,1.487,2.656,2.656,0,0,1-1.161,2.224,6.162,6.162,0,0,1-3.654.864,24.782,24.782,0,0,1-6.344-.921,33.264,33.264,0,0,1-6.656-2.563v9.97a25.751,25.751,0,0,0,5.834,2.025,34.964,34.964,0,0,0,6.94.581,20.9,20.9,0,0,0,8.638-1.657,12.8,12.8,0,0,0,5.637-4.645,12.217,12.217,0,0,0,1.954-6.841A11.225,11.225,0,0,0,728.906,931.417Zm33.069,10.409h-13.4v-7.818h12.406V925.03H748.577v-6.515h13.4v-8.978H737.389v41.409h24.586v-9.12Zm34.385,9.12v-9.035H780.414V909.537H769.226v41.409H796.36Zm17.872,0V909.537H802.988v41.409h11.244Zm-5.693-44.78q5.92,0,5.92-4.872a4.646,4.646,0,0,0-1.416-3.682,8.8,8.8,0,0,0-8.979-.028,4.68,4.68,0,0,0-1.388,3.71q0,4.872,5.863,4.872h0ZM414.624,979.145H403.38V994.5h-13V979.145H379.134v41.4h11.245v-16.88h13v16.88h11.244v-41.4Zm46.593,41.4-13.68-41.575H432.61L419.1,1020.55h12.293l2.1-7.76h13.454l2.039,7.76h12.236Zm-25.406-16.93q2.577-9.747,3.328-13.06t1-4.758q0.284,1.557,1.176,5.154t1.515,5.864l1.784,6.8h-8.808Zm59.4,7.9H476.824l17.929-25.492v-6.883H463.37v9.036h17.5l-17.929,25.459v6.91h32.261v-9.03Zm17.164,9.03v-41.4H501.125v41.4H512.37Zm22.971-15.06,8.78,15.06H556.81l-12.066-18.04q7.024-3.933,7.025-11.129,0-12.235-16.881-12.236H521.32v41.4h11.188v-15.06h2.833Zm-2.833-17.876h2.21q5.75,0,5.749,4.277,0,5.184-5.863,5.183h-2.1v-9.46Zm55.2,32.936v-9.03H571.765V979.145H560.577v41.4h27.135Zm44.27,0L618.3,978.975H603.375l-13.511,41.575h12.293l2.1-7.76h13.454l2.039,7.76h12.236Zm-25.407-16.93q2.577-9.747,3.329-13.06t1-4.758q0.283,1.557,1.175,5.154t1.516,5.864l1.784,6.8h-8.809Zm69.309-24.475h-9.97v18.722q0,3.8.4,10.053h-0.17l-15.069-28.775H636.457v41.4h9.914v-18.66q0-3.625-.539-10.509h0.255l15.125,29.169h14.672v-41.4Zm20.195,41.4v-41.4H684.834v41.4h11.245Zm16.655-41.4h-12.18l13.624,25.575v15.83h11.273v-16.17l13.624-25.235H726.952L719.814,994.5ZM777.2,983.9q-5.1-5.41-14.984-5.41-9.856,0-15.025,5.452t-5.17,15.791q0,10.445,5.2,15.913t14.941,5.47q9.885,0,15.011-5.44t5.127-15.886Q782.3,989.314,777.2,983.9Zm-14.984,3.767a7.1,7.1,0,0,1,6.218,2.96q2.081,2.96,2.081,9.163,0,6.174-2.053,9.1a7.191,7.191,0,0,1-6.3,2.91q-8.356,0-8.356-12.006,0-12.123,8.412-12.123h0Zm41.58,17.819,8.78,15.06h12.689L813.2,1002.51q7.024-3.933,7.025-11.129,0-12.235-16.881-12.236H789.775v41.4h11.188v-15.06H803.8Zm-2.832-17.876h2.209q5.749,0,5.75,4.277,0,5.184-5.863,5.183h-2.1v-9.46Z"/>
  <path id="Forma_1" data-name="Forma 1" class="cls-1" d="M837.3,289.705A337,337,0,1,0,936,528,334.794,334.794,0,0,0,837.3,289.705ZM284.22,528c0-173.571,141.209-314.78,314.78-314.78a313.605,313.605,0,0,1,214.47,84.6L368.818,742.47A313.6,313.6,0,0,1,284.22,528ZM599,842.78a313.605,313.605,0,0,1-214.47-84.6L829.182,313.53A313.605,313.605,0,0,1,913.78,528C913.78,701.571,772.571,842.78,599,842.78Z"/>
  <path id="Forma_1_copy" data-name="Forma 1 copy" class="cls-2" d="M778.52,397.663a10.088,10.088,0,0,0-4.009,19.773,3.423,3.423,0,0,1,2.707,3.3V635.941a3.408,3.408,0,0,1-3.362,3.362H534.674a10.088,10.088,0,1,0,0,20.176H773.857A23.566,23.566,0,0,0,797.4,635.941V420.732A23.617,23.617,0,0,0,778.52,397.663Zm-115.867-.47H424.143A23.566,23.566,0,0,0,400.6,420.732V635.941a23.5,23.5,0,0,0,17.925,22.841,10.087,10.087,0,1,0,4.835-19.586,3.411,3.411,0,0,1-2.582-3.255V420.732a3.408,3.408,0,0,1,3.362-3.363H662.655A10.088,10.088,0,1,0,662.653,397.193Zm-53.077,54.54A78.263,78.263,0,0,0,599,451a77.428,77.428,0,0,0-77.341,77.34,78.392,78.392,0,0,0,.737,10.576,10.09,10.09,0,0,0,9.982,8.72,10.261,10.261,0,0,0,1.381-.094,10.087,10.087,0,0,0,8.626-11.363,58.2,58.2,0,0,1-.55-7.839A57.23,57.23,0,0,1,599,471.171a58.074,58.074,0,0,1,7.839.551A10.088,10.088,0,1,0,609.576,451.733ZM587.738,604.851a78.308,78.308,0,0,0,11.262.826,77.428,77.428,0,0,0,77.341-77.341,78.377,78.377,0,0,0-.825-11.262,10.087,10.087,0,1,0-19.963,2.916,57.929,57.929,0,0,1,.613,8.346A57.228,57.228,0,0,1,599,585.5a58,58,0,0,1-8.346-.613A10.087,10.087,0,0,0,587.738,604.851ZM721.4,495.382a22.189,22.189,0,0,0,2.712-44.212,10.107,10.107,0,0,0-8.364,2.882l-13.487,13.486a10.09,10.09,0,0,0-2.88,8.363A22.214,22.214,0,0,0,721.4,495.382ZM451.044,376.345H491.4a10.088,10.088,0,0,0,0-20.176H451.044A10.088,10.088,0,1,0,451.044,376.345Z"/>
</svg>
